# xmcd CD database file
#
# Track frame offsets:
#	182
#	11120
#	23125
#	35642
#	46850
#	59850
#	70612
#	80547
#	92807
#	107010
#	119167
#	131592
#	141215
#	152380
#	165215
#	178562
#	190920
#	202637
#	215260
#	227420
#
# Disc length: 3184 seconds
#
# Revision: 1
# Processed by: cddbd v1.5PL3 Copyright (c) Steve Scherf et al.
# Submitted via: CDex 1.51
#
DISCID=080c6e14
DTITLE=Guy Mitchell - Singing The Blues
DYEAR=1988
DGENRE=Easy Listening
TTITLE0=Singing the Blues
TTITLE1=Feet Up (Pat Him On The Popo)
TTITLE2=Side By Side
TTITLE3=Call Rosie On The Phone
TTITLE4=My Shoes Keep Walking Back
TTITLE5=Sippin' Soda
TTITLE6=Rockabilly
TTITLE7=Cuff Of My Sleeve
TTITLE8=Sparrow On A Treetop
TTITLE9=My Heart Cries For You
TTITLE10=My Truly Truly Fair
TTITLE11=Knee Deep In The Blues
TTITLE12=Cloud Lucky Seven
TTITLE13=Music,  Music, Music
TTITLE14=She Wears Red Feathers
TTITLE15=The Roving Kind
TTITLE16=Pretty Little Black Eyed Susie
TTITLE17=Pittsburgh Pennsylvania
TTITLE18=Chicka Boom
TTITLE19=Heartaches By The Number
EXTD=YEAR: 1988
EXTT0=
EXTT1=
EXTT2=
EXTT3=
EXTT4=
EXTT5=
EXTT6=
EXTT7=
EXTT8=
EXTT9=
EXTT10=
EXTT11=
EXTT12=
EXTT13=
EXTT14=
EXTT15=
EXTT16=
EXTT17=
EXTT18=
EXTT19=
PLAYORDER=
